<svg width="1600" height="900" viewBox="0 0 1600 900" fill="none" xmlns="http://www.w3.org/2000/svg">
  <rect width="1600" height="900" rx="32" fill="#EEF3FF"/>
  <rect x="0" y="0" width="300" height="900" fill="#101A34"/>
  <rect x="24" y="26" width="44" height="44" rx="12" fill="#2563EB"/>
  <text x="86" y="58" fill="white" font-family="Segoe UI, Arial, sans-serif" font-size="30" font-weight="700">AI术语百科全书</text>
  <rect x="24" y="92" width="252" height="46" rx="12" fill="#16233F" stroke="#2A3B64"/>
  <text x="46" y="122" fill="#7D91BD" font-family="Segoe UI, Arial, sans-serif" font-size="18">搜索术语...</text>
  <text x="28" y="198" fill="#E6EDFF" font-family="Segoe UI, Arial, sans-serif" font-size="26" font-weight="700">今天就要掌握</text>
  <rect x="18" y="225" width="264" height="56" rx="14" fill="#2563EB"/>
  <text x="42" y="261" fill="white" font-family="Segoe UI, Arial, sans-serif" font-size="22" font-weight="700">多模态 (Multimodal)</text>
  <g opacity="0.8">
    <rect x="30" y="314" width="240" height="24" rx="8" fill="#1C2A49"/>
    <rect x="30" y="356" width="220" height="24" rx="8" fill="#1C2A49"/>
    <rect x="30" y="398" width="210" height="24" rx="8" fill="#1C2A49"/>
    <rect x="30" y="476" width="240" height="24" rx="8" fill="#1C2A49"/>
    <rect x="30" y="518" width="230" height="24" rx="8" fill="#1C2A49"/>
    <rect x="30" y="560" width="226" height="24" rx="8" fill="#1C2A49"/>
  </g>
  <rect x="355" y="72" width="190" height="42" rx="21" fill="#D9E7FF"/>
  <text x="381" y="100" fill="#2563EB" font-family="Segoe UI, Arial, sans-serif" font-size="20" font-weight="700">今天就要掌握</text>
  <text x="355" y="190" fill="#111827" font-family="Segoe UI, Arial, sans-serif" font-size="72" font-weight="800">多模态 (Multimodal)</text>
  <rect x="355" y="230" width="1095" height="120" rx="24" fill="white" stroke="#D6E0F5" stroke-width="3"/>
  <rect x="355" y="230" width="8" height="120" rx="4" fill="#3B82F6"/>
  <rect x="388" y="262" width="62" height="62" rx="18" fill="#EAF1FF"/>
  <circle cx="419" cy="293" r="18" stroke="#2563EB" stroke-width="4"/>
  <path d="M419 278V293L430 304" stroke="#2563EB" stroke-width="4" stroke-linecap="round"/>
  <text x="480" y="282" fill="#6B7C9E" font-family="Segoe UI, Arial, sans-serif" font-size="26" font-weight="700">一句话大白话</text>
  <text x="480" y="324" fill="#111827" font-family="Segoe UI, Arial, sans-serif" font-size="34" font-weight="800">让 AI 拥有眼耳口鼻，能同时处理图文音视频。</text>
  <rect x="355" y="388" width="1095" height="338" rx="24" fill="#0F172A"/>
  <rect x="392" y="424" width="298" height="78" rx="18" fill="#1C2A49" stroke="#31415E"/>
  <text x="420" y="473" fill="#F8FAFC" font-family="Segoe UI, Arial, sans-serif" font-size="24" font-weight="700">文生图 (Text-to-Image)</text>
  <rect x="478" y="550" width="194" height="130" rx="22" fill="#D6E8FF"/>
  <text x="527" y="626" fill="#2563EB" font-family="Segoe UI, Arial, sans-serif" font-size="26" font-weight="700">“画一只猫”</text>
  <rect x="848" y="546" width="170" height="138" rx="24" fill="#1E293B" stroke="#3B82F6" stroke-width="3"/>
  <rect x="883" y="578" width="100" height="74" rx="18" fill="#23314A"/>
  <text x="876" y="735" fill="#BFDBFE" font-family="Segoe UI, Arial, sans-serif" font-size="28" font-weight="700">多模态大模型</text>
  <rect x="1184" y="550" width="210" height="130" rx="22" fill="#C9F5D8"/>
  <text x="1232" y="626" fill="#059669" font-family="Segoe UI, Arial, sans-serif" font-size="26" font-weight="700">生成猫咪图片</text>
  <line x1="672" y1="615" x2="848" y2="615" stroke="#3B82F6" stroke-width="8" stroke-linecap="round"/>
  <line x1="1018" y1="615" x2="1184" y2="615" stroke="#334155" stroke-width="8" stroke-linecap="round"/>
  <text x="1268" y="862" fill="#94A3B8" font-family="Segoe UI, Arial, sans-serif" font-size="18">Powered By 清云智通·武汉研发中心</text>
</svg>
